<svg width="886" height="763" viewBox="0 0 886 763" fill="none" xmlns="http://www.w3.org/2000/svg">
<g clip-path="url(#clip0)">
<path d="M219.742 245.024C219.742 245.024 125.026 277.646 106.862 307.759C88.6969 337.872 219.742 245.024 219.742 245.024Z" fill="white"/>
<path d="M56.0906 349.443C55.4317 349.493 54.77 349.4 54.1501 349.171C53.5302 348.942 52.9667 348.583 52.4975 348.118C49.5509 345.463 51.9592 340.445 54.0259 336.9C81.7362 289.399 221.065 239.342 226.982 237.235L239.724 232.697L228.813 240.69C228.41 240.986 187.877 270.655 146.383 298.607C81.8732 342.064 62.721 349.443 56.0906 349.443ZM214.599 246.113C178.014 260.274 79.4206 301.21 57.4414 338.892C54.5141 343.909 55.1335 345.169 55.1412 345.18C55.7336 345.818 63.2208 349.828 143.693 295.654C171.745 276.769 199.42 257.048 214.599 246.113V246.113Z" fill="#3F3D56"/>
<path d="M217.689 212.44C217.689 212.44 130.405 203.468 103.926 218.801C77.4476 234.133 217.689 212.44 217.689 212.44Z" fill="white"/>
<path d="M98.7483 227.105C68.1956 227.105 66.098 222.207 65.137 219.968C63.217 215.487 68.5603 211.268 70.3163 209.882C108.202 179.97 223.275 210.198 228.155 211.499L237.514 213.995L227.926 215.364C227.54 215.419 188.984 220.903 150.076 224.336C127.385 226.338 110.838 227.105 98.7483 227.105ZM125.523 200.746C104.003 200.746 84.3161 203.864 72.767 212.983C69.282 215.733 68.4174 217.59 68.7706 218.41C69.6563 220.475 78.1102 226.719 149.729 220.399C176.416 218.044 202.936 214.722 217.021 212.859C198.974 208.705 159.908 200.746 125.523 200.746Z" fill="#3F3D56"/>
<path d="M242.668 197.068C242.668 197.068 198.764 91.6496 209.402 81.2149C220.039 70.7803 242.668 197.068 242.668 197.068Z" fill="white"/>
<path d="M245.096 206.341L239.637 192.392C239.504 192.05 226.146 157.834 215.139 122.608C192.468 50.059 201.761 43.8638 204.814 41.8279C205.567 41.2879 206.452 40.9616 207.376 40.8837C208.3 40.8057 209.227 40.979 210.061 41.3851C227.185 49.3643 241.829 176.934 243.442 191.454L245.096 206.341ZM207.82 44.8199C207.525 44.8343 207.241 44.9376 207.006 45.1161C196.095 52.3901 218.213 124.004 237.657 176.127C230.988 122.382 218.707 49.7744 208.391 44.9666C208.214 44.8759 208.019 44.8258 207.82 44.8199V44.8199Z" fill="#3F3D56"/>
<path d="M259.262 220.249C259.262 220.249 282.826 113.695 307.513 113.695C332.199 113.695 259.262 220.249 259.262 220.249Z" fill="white"/>
<path d="M253.044 227.602L255.375 218.829C257.087 212.395 297.775 61.256 342.254 61.256C348.352 61.256 350.982 64.1168 352.116 66.5164C363.976 91.6341 269.611 207.467 258.812 220.591L253.044 227.602ZM342.254 65.208C306.751 65.208 271.461 177.417 261.784 210.674C293.626 171.112 357.093 86.314 348.543 68.2039C348.191 67.4629 347.128 65.208 342.254 65.208Z" fill="#3F3D56"/>
<path d="M273.094 221.312C273.094 221.312 354.11 170.116 520.094 185.744C686.078 201.372 273.094 221.312 273.094 221.312Z" fill="white"/>
<path d="M267.567 223.447L271.809 219.812C272.667 219.076 293.321 201.618 334.703 187.578C372.783 174.656 436.262 162.484 522.417 177.871C558.817 184.371 563.543 189.215 563.226 193.48C562.914 197.695 562.18 207.565 416.747 216.716C345.679 221.187 273.868 223.267 273.15 223.287L267.567 223.447ZM444.226 174.636C350.644 174.636 295.318 207.887 279.276 219.144C298.267 218.536 357.645 216.474 416.508 212.77C551.648 204.267 559.153 194.966 559.284 193.188C559.299 192.998 559.199 188.453 521.723 181.761C496.151 177.104 470.218 174.72 444.226 174.636V174.636Z" fill="#3F3D56"/>
<path d="M324.47 227.316C324.47 227.316 466.381 225.422 474.354 240.575C482.326 255.728 324.47 227.316 324.47 227.316Z" fill="white"/>
<path d="M492.526 266.036C447.229 266.036 338.348 233.511 323.897 229.131L312.054 225.543L324.425 225.265C342.578 224.859 502.067 222.206 512.099 254.315C513.288 258.118 511.91 260.558 510.544 261.936C507.688 264.816 501.299 266.036 492.526 266.036ZM337.414 229.036C403.979 248.545 496.407 270.588 507.738 259.153C508.352 258.534 508.973 257.558 508.329 255.494C501.2 232.682 392.424 228.662 337.414 229.036Z" fill="#3F3D56"/>
<path d="M296.806 243.048C296.806 243.048 382.521 282.666 365.772 294.856C349.023 307.046 296.806 243.048 296.806 243.048Z" fill="white"/>
<path d="M419.179 342.789C377.716 342.789 293.292 243.059 289.365 238.392L283.807 231.785L291.686 235.317C297.435 237.894 432.515 298.782 435.471 329.281C435.863 333.326 434.088 336.863 430.338 339.51C427.056 341.75 423.151 342.897 419.179 342.789V342.789ZM298.209 242.635C330.809 280.037 403.342 353.734 428.057 336.282C430.689 334.425 431.795 332.321 431.539 329.662C429.412 307.734 341.14 262.519 298.209 242.635Z" fill="#3F3D56"/>
<path d="M439.078 290.472C439.078 290.472 510.214 320.112 494.406 339.872C478.598 359.632 439.078 290.472 439.078 290.472Z" fill="white"/>
<path d="M306.686 266.76C306.686 266.76 454.886 428.792 441.054 438.672C427.222 448.552 306.686 266.76 306.686 266.76Z" fill="white"/>
<path d="M279.022 254.904C279.022 254.904 341.418 358.824 328.684 368.927C315.95 379.031 279.022 254.904 279.022 254.904Z" fill="white"/>
<path d="M349.646 407.855C348.868 407.85 348.095 407.72 347.358 407.471C324.483 399.957 278.379 264.974 273.198 249.607L268.59 235.941L276.704 247.865C276.945 248.221 301.198 283.917 322.72 320.846C362.506 389.116 359.208 402.541 353.267 406.699C352.21 407.453 350.944 407.857 349.646 407.855ZM281.968 262.901C298.786 310.639 332.642 398.478 348.591 403.718C348.982 403.882 349.408 403.945 349.829 403.9C350.251 403.856 350.654 403.704 351.001 403.461C354.266 401.176 357.714 388.746 319.314 322.851C305.69 299.473 290.963 276.583 281.968 262.901H281.968Z" fill="#3F3D56"/>
<path d="M252.625 250.952C252.625 250.952 196.468 416.655 230.928 414.947C265.388 413.239 252.625 250.952 252.625 250.952Z" fill="white"/>
<path d="M216.949 442.64C210.902 442.64 206.251 440.276 203.117 435.606C180.885 402.471 246.744 256.341 249.557 250.136L252.562 243.514L253.322 250.746C253.945 256.663 268.208 396.112 235.899 433.366C230.791 439.253 224.715 442.368 217.839 442.622C217.54 442.634 217.243 442.64 216.949 442.64ZM250.086 258.732C237.066 288.669 188.014 406.003 206.4 433.404C208.905 437.14 212.598 438.871 217.692 438.674C223.512 438.458 228.491 435.874 232.914 430.776C259.922 399.635 252.626 288.82 250.086 258.732V258.732Z" fill="#3F3D56"/>
<path d="M233.229 259.189C233.229 259.189 138.964 367.004 147.591 378.359C156.218 389.715 233.229 259.189 233.229 259.189Z" fill="white"/>
<path d="M119.232 417.664C117.984 417.684 116.765 417.281 115.776 416.519C115.104 415.973 114.557 415.29 114.17 414.515C113.783 413.741 113.566 412.892 113.534 412.027C111.166 385.243 236.644 245.677 241.985 239.749L254.617 225.734L245.163 242.062C241.134 249.021 146.205 412.538 120.643 417.521C120.178 417.614 119.706 417.661 119.232 417.664V417.664ZM231.592 257.373C190.019 304.589 115.826 393.085 117.47 411.68C117.456 412.003 117.514 412.326 117.641 412.624C117.768 412.922 117.96 413.187 118.203 413.401C118.447 413.567 118.725 413.676 119.017 413.718C119.308 413.759 119.606 413.734 119.886 413.642C137.552 410.2 199.266 311.776 231.592 257.373H231.592Z" fill="#3F3D56"/>
<path d="M204.936 186.589C204.936 186.589 122.753 89.5124 46.7566 98.9204C-29.2397 108.328 204.936 186.589 204.936 186.589Z" fill="white"/>
<path d="M215.89 191.125L209.422 189.647C208.903 189.528 156.961 177.615 105.608 162.418C0.451942 131.299 0.112316 116.989 0.00237585 112.288C-0.132704 106.614 5.64287 102.226 17.659 98.8724C62.2522 86.4249 112.604 110.944 146.979 133.709C170.063 149.138 191.599 166.767 211.284 186.348L215.89 191.125ZM43.1791 99.4465C34.9169 99.4047 26.6878 100.493 18.7203 102.68C9.11427 105.36 3.87127 108.739 3.95236 112.194C4.40198 131.166 121.021 164.996 203.492 184.222C183.996 165.52 110.342 99.4465 43.1791 99.4465H43.1791Z" fill="#3F3D56"/>
<path d="M140.702 179.816C140.702 179.816 32.0217 171.912 39.9257 191.672C47.8297 211.432 140.702 179.816 140.702 179.816Z" fill="white"/>
<path d="M168.366 106.704C168.366 106.704 162.438 79.04 152.558 84.968C142.678 90.896 168.366 106.704 168.366 106.704Z" fill="white"/>
<path d="M268.482 126.278C268.482 126.278 295.597 12.3392 283.307 11.9212C271.018 11.5032 268.482 126.278 268.482 126.278Z" fill="white"/>
<path d="M263.436 151.505L263.214 136.373C263.142 131.513 261.635 17.1655 276.502 2.07732C277.069 1.44248 277.761 0.930657 278.535 0.573395C279.308 0.216133 280.146 0.0209903 280.998 0C281.824 0.0033738 282.638 0.201427 283.374 0.578094C284.109 0.954762 284.746 1.49945 285.231 2.16801C296.671 16.8201 270.166 124.584 267.106 136.824L263.436 151.505ZM280.998 3.952C280.801 3.952 280.203 3.952 279.317 4.85124C269.499 14.8162 267.22 81.1077 267.087 120.094C277.97 73.6388 289.062 13.4943 282.117 4.60038C282.001 4.40619 281.837 4.24478 281.641 4.13135C281.445 4.01791 281.224 3.95619 280.998 3.952Z" fill="#3F3D56"/>
<path d="M393.63 142.272C393.63 142.272 405.486 112.632 417.342 120.536C429.198 128.44 393.63 142.272 393.63 142.272Z" fill="white"/>
<path d="M280.998 405.08C280.998 405.08 265.19 521.664 294.83 519.688C324.47 517.712 280.998 405.08 280.998 405.08Z" fill="white"/>
<path d="M363.688 378.567C363.688 378.567 348.542 353.324 348.542 335.654C348.542 335.654 322.037 307.887 329.61 300.314C337.182 292.741 353.59 321.77 353.59 321.77C353.59 321.77 323.299 287.692 332.134 282.644C340.969 277.595 369.998 315.46 369.998 315.46L380.096 310.411C380.096 310.411 358.649 257.514 373.785 256.138C380.727 255.507 396.504 306.625 396.504 306.625L412.912 348.276C412.912 348.276 419.222 363.421 416.698 372.256C415.16 377.658 413.896 383.135 412.912 388.664L363.688 378.567Z" fill="#FFB9B9"/>
<path opacity="0.1" d="M402.814 384.878C402.814 384.878 411.649 370.994 408.452 349.795C405.254 328.595 387.669 316.722 387.669 316.722C387.669 316.722 376.309 325.557 387.669 348.276C387.669 348.276 373.785 360.897 385.144 381.091" fill="black"/>
<path d="M407.863 384.878C407.863 384.878 416.698 370.994 413.501 349.795C410.303 328.595 392.717 316.722 392.717 316.722C392.717 316.722 381.358 325.557 392.717 348.276C392.717 348.276 378.833 360.897 390.193 381.091" fill="#FFB9B9"/>
<path opacity="0.1" d="M373.154 314.828L366.212 304.1C366.212 304.1 333.396 299.052 337.182 310.411C340.969 321.77 356.115 316.722 356.115 316.722L364.95 325.557L373.154 314.828Z" fill="black"/>
<path d="M378.833 314.197L368.736 300.314C368.736 300.314 335.92 295.265 339.707 306.625C343.493 317.984 358.639 312.935 358.639 312.935L367.474 321.77L378.833 314.197Z" fill="#FFB9B9"/>
<path d="M612.963 480.17L606.652 530.656L705.1 536.967V476.384L612.963 480.17Z" fill="#FFB9B9"/>
<path d="M885.587 762.892L805.749 603.216C800.98 587.422 786.085 561.698 739.809 545.171L705.1 515.809L679.226 514.88L575.729 499.734C575.729 499.734 496.214 494.685 444.465 526.239L430.582 519.928C430.582 519.928 407.863 439.15 417.96 381.091L359.901 376.043C359.901 376.043 328.347 513.617 343.493 555.268C358.639 596.92 414.174 627.211 414.174 627.211L463.398 676.435L482.33 762.261H777.673L782.373 739.743L805.441 762.261L885.587 762.892Z" fill="white"/>
<path d="M776.509 475.422C682.577 501.846 590.256 503.714 499.886 475.829C489.263 472.551 482 462.834 482 451.806V176.789C482 164.483 490.988 153.986 503.237 151.985C588.486 138.057 678.798 139.136 773.254 152.505C785.735 154.272 795 164.889 795 177.387V451.224C795 462.484 787.436 472.348 776.509 475.422Z" fill="white"/>
<path d="M582.19 297.559C582.19 297.559 560.802 266.3 573.964 258.074C587.126 249.848 606.868 272.88 606.868 272.88C606.868 272.88 631.546 251.493 644.708 259.719C657.869 267.945 631.546 297.559 631.546 297.559C631.546 297.559 651.289 302.494 652.934 315.656C654.579 328.817 661.16 363.367 633.191 365.012C618.208 365.893 609.835 361.581 605.29 357.386C603.636 355.904 601.5 355.072 599.279 355.046C597.057 355.019 594.902 355.8 593.213 357.243C583.729 365.234 566.648 374.444 554.222 351.85C549.286 317.301 582.19 297.559 582.19 297.559Z" fill="#3F3D56"/>
<path d="M740.13 300.849C740.13 300.849 761.517 269.59 748.356 261.364C735.194 253.138 715.452 276.171 715.452 276.171C715.452 276.171 690.774 254.783 677.612 263.009C664.45 271.235 690.773 300.849 690.773 300.849C690.773 300.849 671.031 305.785 669.386 318.946C667.741 332.108 661.16 366.657 689.128 368.302C704.111 369.184 712.484 364.871 717.029 360.677C718.683 359.194 720.82 358.362 723.041 358.336C725.262 358.31 727.417 359.091 729.106 360.534C738.591 368.524 755.671 377.734 768.098 355.141C773.034 320.591 740.13 300.849 740.13 300.849Z" fill="#3F3D56"/>
<path d="M556.225 386.281C556.225 386.281 587.087 411.129 652.897 409.562C718.707 407.995 739.989 405.309 754.056 389.797C768.123 374.286 772.292 392.201 767.924 403.945C763.556 415.688 757.946 435.728 725.161 438.976C703.578 441.115 656.929 441.622 627.572 441.718C604.753 441.907 582.191 436.888 561.605 427.043C561.332 426.911 561.061 426.779 560.791 426.645C554.546 423.561 549.288 418.792 545.611 412.877C541.934 406.962 539.984 400.136 539.982 393.171C539.984 387.637 540.959 384.646 544.561 383.556C551.054 381.592 556.225 386.281 556.225 386.281Z" fill="#3F3D56"/>
<path d="M634.049 500C588.75 500.024 543.708 493.206 500.454 479.778C495.103 478.143 490.421 474.834 487.099 470.341C483.776 465.848 481.988 460.409 482 454.825V179.705C481.982 173.51 484.179 167.513 488.196 162.79C492.213 158.067 497.786 154.929 503.914 153.94C585.542 140.516 675.927 140.69 772.559 154.457C778.78 155.374 784.465 158.486 788.582 163.228C792.7 167.97 794.977 174.028 795 180.302V454.243C794.977 459.929 793.104 465.454 789.663 469.987C786.223 474.52 781.4 477.815 775.921 479.378C728.601 492.777 681.821 499.713 636.878 499.991C635.938 499.997 634.99 500 634.049 500ZM630.9 145.928C588.476 145.786 546.112 149.102 504.229 155.842C498.553 156.759 493.391 159.665 489.67 164.039C485.95 168.413 483.915 173.968 483.932 179.705V454.825C483.922 459.997 485.578 465.036 488.656 469.197C491.734 473.359 496.072 476.423 501.029 477.937C587.388 504.761 679.697 504.622 775.392 477.523L775.656 478.451L775.392 477.523C780.468 476.077 784.936 473.025 788.123 468.826C791.311 464.628 793.046 459.51 793.068 454.243V180.302C793.047 174.491 790.938 168.881 787.125 164.489C783.312 160.097 778.047 157.215 772.286 156.365C725.463 149.559 678.217 146.071 630.9 145.928V145.928Z" fill="#3F3D56"/>
<path d="M622.846 190.297C599.211 190.297 578.987 189.237 562.427 187.8C510.343 183.283 482.278 174.166 482 174.074L482.672 172.037C482.948 172.128 510.844 181.182 562.713 185.672C610.584 189.818 689.252 190.81 792.147 172L792.533 174.111C724.933 186.467 667.747 190.297 622.846 190.297Z" fill="#3F3D56"/>
</g>
<defs>
<clipPath id="clip0">
<rect width="885.587" height="762.892" fill="white"/>
</clipPath>
</defs>
</svg>
