<?xml version="1.0" standalone="no"?><svg xmlns="http://www.w3.org/2000/svg" viewBox="0 0 1440 320"><path fill="#6495ed" fill-opacity="1" d="M0,160L16,181.3C32,203,64,245,96,218.7C128,192,160,96,192,96C224,96,256,192,288,218.7C320,245,352,203,384,192C416,181,448,203,480,224C512,245,544,267,576,234.7C608,203,640,117,672,112C704,107,736,181,768,176C800,171,832,85,864,42.7C896,0,928,0,960,26.7C992,53,1024,107,1056,128C1088,149,1120,139,1152,160C1184,181,1216,235,1248,234.7C1280,235,1312,181,1344,176C1376,171,1408,213,1424,234.7L1440,256L1440,320L1424,320C1408,320,1376,320,1344,320C1312,320,1280,320,1248,320C1216,320,1184,320,1152,320C1120,320,1088,320,1056,320C1024,320,992,320,960,320C928,320,896,320,864,320C832,320,800,320,768,320C736,320,704,320,672,320C640,320,608,320,576,320C544,320,512,320,480,320C448,320,416,320,384,320C352,320,320,320,288,320C256,320,224,320,192,320C160,320,128,320,96,320C64,320,32,320,16,320L0,320Z"></path></svg>